<svg width="303" height="35" viewBox="0 0 303 35" fill="none" xmlns="http://www.w3.org/2000/svg">
<path d="M31.1999 -7.15256e-05L40.1279 14.1599H31.0079L24.9599 4.55993H17.8559L9.11989 14.1599H-0.00011313L11.7599 1.29593L10.7039 -7.15256e-05H31.1999ZM36.6719 16.4159L35.9519 21.4559L22.6559 34.5599H12.1919L25.4399 21.4559H3.55189L4.27189 16.4159H36.6719ZM25.9199 15.0719H17.7119L15.8399 8.68793H24.0479L25.9199 15.0719ZM91.8521 0.911928L87.2441 33.7439H52.5881L56.9561 2.73593L55.3721 0.911928H91.8521ZM78.7481 29.1839L80.1401 19.1519H63.7241L62.3321 29.1839H78.7481ZM64.3961 14.5919H80.8121L82.1081 5.47193H65.6921L64.3961 14.5919ZM108.92 5.47193L107.72 4.07993H117.752L116.6 12.2879H121.16L122.648 1.82393L121.064 -7.15256e-05H132.008L130.28 12.2879H134.84L135.8 5.47193L134.648 4.07993H144.632L142.856 16.8479H129.656L127.928 29.1839H133.4L134.504 21.4079L133.352 20.0639H143.336L141.416 33.7439H104.072L105.8 21.4559L104.6 20.0639H114.632L113.336 29.1839H118.808L120.536 16.8479H107.336L108.92 5.47193ZM183.685 26.2559L184.501 20.2079H168.277L167.461 26.2559L163.381 28.6079H157.909L159.637 16.2239H194.293L192.565 28.6079H187.093L183.685 26.2559ZM197.605 4.94393L185.557 7.77593L185.221 10.4639H193.669L197.413 7.19993L196.357 14.5439H176.725L177.397 9.74393L172.261 10.9439L172.933 6.14393L178.069 4.94393L178.501 1.87193L176.917 0.0479279H186.661L186.229 2.97593L198.277 0.143929L197.605 4.94393ZM174.901 30.4319L167.557 34.5119H154.741L170.149 25.6319L170.677 21.5999H181.717L181.045 26.4959L193.957 34.5119H181.189L174.901 30.4319ZM172.117 2.73593H172.165L170.437 15.0239H161.701L162.757 7.43993L159.013 8.25593L159.829 2.73593L172.549 -7.15256e-05L172.117 2.73593ZM216.977 10.9439L218.081 9.59993H211.169L211.649 5.95193H221.009L222.353 4.31993L210.929 4.55993L211.457 0.911928L249.905 -7.15256e-05L249.377 3.64793L233.489 4.03193L231.953 5.95193H248.129L247.649 9.59993H229.025L227.921 10.9439H248.369L247.841 14.5919H224.993L223.889 15.9839H246.257L243.617 34.5599H210.353L212.033 22.7999H207.473L214.049 14.5919H209.537L210.065 10.9439H216.977ZM235.937 31.0079L236.177 29.3279H219.329L219.089 31.0079H235.937ZM219.761 26.1599H236.609L236.849 24.4799H220.001L219.761 26.1599ZM220.433 21.2639H237.281L237.521 19.6319H220.673L220.433 21.2639ZM275.133 34.4639L281.661 0.863929L302.637 0.239928L302.013 4.79993L287.421 5.42393L286.557 9.74393H301.293L300.141 18.1439L295.965 24.1439L300.813 34.4159H294.237L291.549 29.6159L288.525 34.4639H275.133ZM266.637 10.1759H262.221L262.845 5.61593H267.261L267.885 1.39193L266.829 -7.15256e-05H275.133L274.317 5.61593H278.157L277.533 10.1759H273.693L270.237 34.5599H263.181L266.637 10.1759ZM259.053 32.8319L262.845 11.6639H265.869L262.077 32.8319H259.053ZM291.309 16.0799L291.117 17.4239L292.317 20.1599L293.853 17.7599L294.333 14.1119H285.693L281.661 34.4639L287.757 25.3919L285.165 19.3919L285.645 16.0799H291.309ZM272.253 30.0959L274.029 11.7599H277.053L275.277 30.0959H272.253Z" fill="#333333"/>
</svg>
