<svg width="303" height="35" viewBox="0 0 303 35" fill="none" xmlns="http://www.w3.org/2000/svg">
<path d="M31.1999 -7.15256e-05L40.1279 14.1599H31.0079L24.9599 4.55993H17.8559L9.11989 14.1599H-0.00011313L11.7599 1.29593L10.7039 -7.15256e-05H31.1999ZM36.6719 16.4159L35.9519 21.4559L22.6559 34.5599H12.1919L25.4399 21.4559H3.55189L4.27189 16.4159H36.6719ZM25.9199 15.0719H17.7119L15.8399 8.68793H24.0479L25.9199 15.0719ZM91.8521 0.911928L87.2441 33.7439H52.5881L56.9561 2.73593L55.3721 0.911928H91.8521ZM78.7481 29.1839L80.1401 19.1519H63.7241L62.3321 29.1839H78.7481ZM64.3961 14.5919H80.8121L82.1081 5.47193H65.6921L64.3961 14.5919ZM108.92 5.47193L107.72 4.07993H117.752L116.6 12.2879H121.16L122.648 1.82393L121.064 -7.15256e-05H132.008L130.28 12.2879H134.84L135.8 5.47193L134.648 4.07993H144.632L142.856 16.8479H129.656L127.928 29.1839H133.4L134.504 21.4079L133.352 20.0639H143.336L141.416 33.7439H104.072L105.8 21.4559L104.6 20.0639H114.632L113.336 29.1839H118.808L120.536 16.8479H107.336L108.92 5.47193ZM183.685 26.2559L184.501 20.2079H168.277L167.461 26.2559L163.381 28.6079H157.909L159.637 16.2239H194.293L192.565 28.6079H187.093L183.685 26.2559ZM197.605 4.94393L185.557 7.77593L185.221 10.4639H193.669L197.413 7.19993L196.357 14.5439H176.725L177.397 9.74393L172.261 10.9439L172.933 6.14393L178.069 4.94393L178.501 1.87193L176.917 0.0479279H186.661L186.229 2.97593L198.277 0.143929L197.605 4.94393ZM174.901 30.4319L167.557 34.5119H154.741L170.149 25.6319L170.677 21.5999H181.717L181.045 26.4959L193.957 34.5119H181.189L174.901 30.4319ZM172.117 2.73593H172.165L170.437 15.0239H161.701L162.757 7.43993L159.013 8.25593L159.829 2.73593L172.549 -7.15256e-05L172.117 2.73593ZM212.513 2.73593L210.929 0.911928H249.233L244.625 33.7439H208.145L212.513 2.73593ZM219.233 19.6319H237.473L238.193 14.5919H219.953L219.233 19.6319ZM236.129 29.1839L236.801 24.1919H218.561L217.889 29.1839H236.129ZM220.577 10.0319H238.817L239.489 5.47193H221.249L220.577 10.0319ZM267.357 10.4159H262.461L263.133 5.85593H267.981L268.605 1.48793L267.453 0.0959272H275.853L275.037 5.85593H279.837L279.165 10.4159H274.365L270.957 34.5599H263.949L267.357 10.4159ZM280.845 34.5599L283.869 31.5359L286.125 15.5039H278.877L279.549 10.7519H302.157L301.485 15.5039H293.229L290.973 31.6799C290.845 32.5119 290.461 33.1999 289.821 33.7439C289.213 34.2879 288.509 34.5599 287.709 34.5599H280.845ZM301.869 1.00793L301.197 5.80793H281.469L282.141 1.00793H301.869ZM299.421 18.2399L299.085 33.6479H293.997L294.045 18.2399H299.421ZM284.589 18.2399L280.653 33.6479H275.565L279.501 18.2399H284.589ZM259.485 32.8319L263.373 11.2799H266.589L262.701 32.8319H259.485ZM272.973 30.0959L274.797 11.2799H277.965L276.189 30.0959H272.973Z" fill="#333333"/>
</svg>
