<svg width="304" height="36" viewBox="0 0 304 36" fill="none" xmlns="http://www.w3.org/2000/svg">
<path d="M17.144 0.871999L16.088 2.696H41.48L40.856 7.256H13.496L12.728 8.6H39.752L38.6 16.856H41.336L40.76 20.936H38.024L37.448 25.016H39.224L38.552 29.624H36.776L36.44 32.264C36.28 33.192 35.848 33.96 35.144 34.568C34.44 35.144 33.624 35.432 32.696 35.432H14.072L18.392 30.968H29.336L29.528 29.624H4.76L5.96 20.936H0.632L1.208 16.856H6.536L7.016 13.64H1.64L8.216 2.168L7.112 0.871999H17.144ZM15.416 12.728L14.84 16.856H18.92L18.44 14.12H26.648L27.128 16.856H31.304L31.88 12.728H15.416ZM26.456 22.28L26.984 25.016H30.152L30.728 20.936H14.264L13.688 25.016H18.776L18.248 22.28H26.456ZM92.8683 1.784L88.2603 34.616H53.6043L57.9723 3.608L56.3883 1.784H92.8683ZM79.7643 30.056L81.1562 20.024H64.7403L63.3483 30.056H79.7643ZM65.4123 15.464H81.8283L83.1243 6.344H66.7083L65.4123 15.464ZM109.937 6.344L108.737 4.952H118.769L117.617 13.16H122.177L123.665 2.696L122.081 0.871999H133.025L131.297 13.16H135.857L136.817 6.344L135.665 4.952H145.649L143.873 17.72H130.673L128.945 30.056H134.417L135.521 22.28L134.369 20.936H144.353L142.433 34.616H105.089L106.817 22.328L105.617 20.936H115.648L114.353 30.056H119.825L121.553 17.72H108.353L109.937 6.344ZM184.701 27.128L185.517 21.08H169.293L168.477 27.128L164.397 29.48H158.925L160.653 17.096H195.309L193.581 29.48H188.109L184.701 27.128ZM198.621 5.816L186.573 8.648L186.237 11.336H194.685L198.429 8.072L197.373 15.416H177.741L178.413 10.616L173.277 11.816L173.949 7.016L179.085 5.816L179.517 2.744L177.933 0.919998H187.677L187.245 3.848L199.293 1.016L198.621 5.816ZM175.917 31.304L168.573 35.384H155.757L171.165 26.504L171.693 22.472H182.733L182.061 27.368L194.973 35.384H182.205L175.917 31.304ZM173.133 3.608H173.181L171.453 15.896H162.717L163.773 8.312L160.029 9.128L160.845 3.608L173.565 0.871999L173.133 3.608ZM217.993 11.816L219.097 10.472H212.185L212.665 6.824H222.025L223.369 5.192L211.945 5.432L212.473 1.784L250.921 0.871999L250.393 4.52L234.505 4.904L232.969 6.824H249.145L248.665 10.472H230.041L228.937 11.816H249.385L248.857 15.464H226.009L224.905 16.856H247.273L244.633 35.432H211.369L213.049 23.672H208.489L215.065 15.464H210.553L211.081 11.816H217.993ZM236.953 31.88L237.193 30.2H220.345L220.105 31.88H236.953ZM220.777 27.032H237.625L237.865 25.352H221.017L220.777 27.032ZM221.449 22.136H238.297L238.537 20.504H221.689L221.449 22.136ZM276.149 35.336L282.677 1.736L303.653 1.112L303.029 5.672L288.437 6.296L287.573 10.616H302.309L301.157 19.016L296.981 25.016L301.829 35.288H295.253L292.565 30.488L289.541 35.336H276.149ZM267.653 11.048H263.237L263.861 6.488H268.277L268.901 2.264L267.845 0.871999H276.149L275.333 6.488H279.173L278.549 11.048H274.709L271.253 35.432H264.197L267.653 11.048ZM260.069 33.704L263.861 12.536H266.885L263.093 33.704H260.069ZM292.325 16.952L292.133 18.296L293.333 21.032L294.869 18.632L295.349 14.984H286.709L282.677 35.336L288.773 26.264L286.181 20.264L286.661 16.952H292.325ZM273.269 30.968L275.045 12.632H278.069L276.293 30.968H273.269Z" fill="#333333"/>
</svg>
