<svg width="200" height="200" viewBox="0 0 200 200" fill="none" xmlns="http://www.w3.org/2000/svg">
<g clip-path="url(#clip0_13645_3925)">
<path opacity="0.2" d="M0 100C0 44.808 44.808 0 100 0C155.192 0 200 44.808 200 100C200 155.192 155.192 200 100 200C44.808 200 0 155.192 0 100ZM66 64V138H140V64H66Z" fill="#23C69F"/>
<path d="M54 100C54 74.612 74.612 54 100 54C125.388 54 146 74.612 146 100C146 125.388 125.388 146 100 146C74.612 146 54 125.388 54 100Z" fill="white"/>
<path d="M100 36C135.348 36 164 64.652 164 100C164 135.348 135.348 164 100 164C64.652 164 36 135.348 36 100C36 64.652 64.652 36 100 36ZM88.756 118.56L75.168 104.972C74.577 104.363 73.8708 103.878 73.0907 103.545C72.3106 103.212 71.4719 103.037 70.6236 103.031C69.7753 103.025 68.9342 103.187 68.1493 103.509C67.3644 103.831 66.6512 104.306 66.0514 104.905C65.4515 105.505 64.9769 106.218 64.6551 107.003C64.3333 107.788 64.1708 108.629 64.177 109.478C64.1832 110.326 64.358 111.165 64.6912 111.945C65.0244 112.725 65.5094 113.431 66.118 114.022L84.224 132.128C85.4242 133.328 87.0518 134.002 88.749 134.002C90.4461 134.002 92.0738 133.328 93.274 132.128L138.522 86.874C139.357 86.0892 139.967 85.0945 140.286 83.9939C140.606 82.8933 140.625 81.7271 140.34 80.6168C140.055 79.5066 139.478 78.4931 138.668 77.6821C137.858 76.8711 136.846 76.2922 135.736 76.006C134.626 75.7212 133.459 75.7397 132.358 76.0595C131.258 76.3793 130.263 76.9886 129.478 77.824L88.756 118.56Z" fill="#23C69F"/>
</g>
<defs>
<clipPath id="clip0_13645_3925">
<rect width="200" height="200" fill="white"/>
</clipPath>
</defs>
</svg>
