<svg width="20" height="20" viewBox="0 0 20 20" fill="none" xmlns="http://www.w3.org/2000/svg">
<path d="M15.8516 6.12119C15.5263 5.4543 15.0977 4.843 14.5816 4.30992C13.2555 2.93267 11.3994 2.04544 9.35417 1.81183C8.99535 1.77062 8.63414 1.74942 8.27253 1.74902C7.93971 1.74902 7.5909 1.76862 7.23729 1.80783C5.18521 2.03063 3.31833 2.91547 1.98268 4.29152C1.46447 4.82333 1.03354 5.43368 0.70583 6.09999C0.274922 6.97128 0.0504464 7.93009 0.0498047 8.9021C0.0498047 10.1542 0.42902 11.3858 1.14585 12.4682C1.50906 13.0167 2.10308 13.7067 2.64991 14.1943L2.4027 16.144C2.3931 16.17 2.3831 16.196 2.3767 16.2244C2.3699 16.2508 2.3687 16.2768 2.3663 16.3032C2.3647 16.3228 2.3595 16.3424 2.3595 16.362C2.3595 16.3836 2.3647 16.4048 2.3663 16.426C2.38118 16.5821 2.45359 16.7271 2.56943 16.8329C2.68528 16.9386 2.83629 16.9974 2.99312 16.998C3.10752 16.998 3.21313 16.9648 3.30513 16.9124L3.31473 16.906C3.32753 16.8996 3.34193 16.8916 3.35473 16.8832L3.94476 16.5856L5.70163 15.6988C6.20405 15.842 6.71767 15.9412 7.23689 15.9956C7.94011 16.0728 8.65014 16.0704 9.35297 15.9892C10.0604 15.9081 10.7561 15.745 11.4258 15.5032C11.1793 15.4207 10.968 15.257 10.8266 15.0389C10.6852 14.8207 10.622 14.561 10.6474 14.3023C10.169 14.4555 9.6768 14.5613 9.17776 14.6183C8.5886 14.6864 7.99365 14.6882 7.40409 14.6235C7.34529 14.6171 7.28489 14.6075 7.22489 14.5995C6.83171 14.5472 6.4431 14.465 6.06244 14.3535C5.98431 14.3287 5.90281 14.3161 5.82083 14.3163C5.69003 14.3163 5.56482 14.3503 5.43682 14.4163C5.41961 14.4263 5.40401 14.4335 5.38681 14.4427L3.94396 15.2968L3.88075 15.3344C3.84995 15.354 3.83155 15.3604 3.81515 15.3604C3.78937 15.3596 3.76491 15.3488 3.74709 15.3301C3.72927 15.3115 3.71952 15.2865 3.71995 15.2608L3.77555 15.0347L3.83795 14.7891L3.94396 14.3867L4.05996 13.9371C4.13996 13.6879 4.05196 13.4155 3.84195 13.2603C3.63085 13.1029 3.42953 12.9329 3.23913 12.7511C2.91688 12.4454 2.62988 12.1046 2.3835 11.735C1.81547 10.8782 1.51626 9.90574 1.51626 8.9221C1.51626 8.15927 1.68987 7.41685 2.03228 6.71642C2.29574 6.18281 2.64174 5.69412 3.05752 5.26836C4.15477 4.13592 5.69883 3.40909 7.40449 3.22348C7.7005 3.19068 7.99252 3.17468 8.27173 3.17468C8.56574 3.17468 8.87015 3.19228 9.17816 3.22668C10.8766 3.42069 12.4115 4.15072 13.5003 5.28316C13.9143 5.71037 14.2581 6.20029 14.5192 6.73482C14.8532 7.41484 15.0272 8.16287 15.0284 8.9213C15.0284 9.00011 15.0232 9.07891 15.0196 9.15731C15.2378 9.02228 15.4953 8.965 15.7502 8.99478C16.0051 9.02455 16.2424 9.13963 16.4236 9.32132C16.4436 9.34092 16.4584 9.36252 16.4756 9.38292C16.4888 9.22172 16.4956 9.06171 16.4956 8.8977C16.4951 7.93474 16.2748 6.98459 15.8516 6.11959" fill="#0082F0"/>
<path d="M15.7736 16.1135C15.7286 16.1031 15.6829 16.0955 15.6368 16.0907C14.8821 15.9499 14.1944 15.5654 13.6792 14.9963C13.6432 14.9609 13.5982 14.9361 13.549 14.9249C13.4998 14.9136 13.4485 14.9162 13.4007 14.9324C13.3529 14.9487 13.3106 14.9778 13.2785 15.0167C13.2463 15.0556 13.2257 15.1027 13.2187 15.1527C13.2114 15.2026 13.218 15.2536 13.2377 15.3C13.2575 15.3465 13.2897 15.3866 13.3307 15.4159L13.4087 15.4943C13.9019 15.9887 14.2377 16.6182 14.3736 17.3032C14.3878 17.5436 14.4775 17.7734 14.6299 17.9599C14.7823 18.1465 14.9896 18.2802 15.2224 18.342C15.4159 18.3933 15.6195 18.3928 15.8128 18.3405C16.006 18.2882 16.1821 18.1859 16.3233 18.044C16.4677 17.8987 16.5707 17.7176 16.6219 17.5193C16.673 17.3209 16.6703 17.1125 16.6141 16.9156C16.5581 16.7187 16.4505 16.5405 16.3025 16.3993C16.1544 16.258 15.9713 16.159 15.772 16.1123" fill="#FB6500"/>
<path d="M19.5582 13.1805C19.4058 13.027 19.2129 12.9201 19.002 12.8721C18.791 12.8242 18.5708 12.8372 18.367 12.9097C18.163 12.9825 17.9838 13.1115 17.8501 13.2819C17.7165 13.4523 17.6338 13.6571 17.6118 13.8726C17.472 14.6282 17.0898 15.3178 16.5229 15.8367C16.4851 15.8724 16.4582 15.9181 16.4452 15.9685C16.4323 16.0189 16.4338 16.072 16.4497 16.1215C16.4656 16.1711 16.4952 16.2151 16.535 16.2486C16.5749 16.2821 16.6234 16.3036 16.6749 16.3107C16.7265 16.3174 16.7788 16.3092 16.8259 16.2873C16.873 16.2653 16.9129 16.2304 16.9409 16.1867L17.0182 16.1079C17.5089 15.6129 18.136 15.2753 18.8194 15.1382C19.0597 15.1226 19.2889 15.0317 19.4747 14.8786C19.6605 14.7255 19.7934 14.5178 19.8547 14.285C19.906 14.0908 19.9056 13.8866 19.8536 13.6925C19.8016 13.4985 19.6998 13.3215 19.5582 13.1789" fill="#0082F0"/>
<path d="M14.7159 9.93336C14.5634 10.0871 14.4573 10.2807 14.4099 10.492C14.3624 10.7032 14.3754 10.9236 14.4475 11.1278C14.5191 11.3318 14.647 11.5113 14.8163 11.6457C14.9856 11.7801 15.1894 11.8639 15.4043 11.8874C16.1587 12.0283 16.8461 12.4126 17.3612 12.9815C17.397 13.0183 17.4426 13.0442 17.4925 13.0563C17.5424 13.0685 17.5948 13.0663 17.6435 13.0501C17.6923 13.0338 17.7355 13.0042 17.7682 12.9645C17.8009 12.9249 17.8217 12.8768 17.8284 12.8259C17.8354 12.775 17.828 12.7231 17.8071 12.6762C17.7861 12.6292 17.7525 12.5891 17.71 12.5603C17.1736 12.0554 16.8083 11.3956 16.6651 10.673C16.651 10.4328 16.5616 10.2031 16.4095 10.0166C16.2574 9.83011 16.0504 9.69629 15.8179 9.63415C15.6243 9.58255 15.4204 9.5829 15.227 9.63514C15.0335 9.68739 14.8572 9.7897 14.7159 9.93176" fill="#2DBC00"/>
<path d="M13.4182 14.1751L13.4278 14.1055C13.5675 13.3491 13.9501 12.6589 14.5174 12.1394C14.5552 12.1037 14.5822 12.058 14.5951 12.0076C14.6081 11.9573 14.6066 11.9043 14.5907 11.8547C14.5749 11.8052 14.5454 11.7611 14.5056 11.7276C14.4658 11.6941 14.4173 11.6726 14.3658 11.6654C14.3142 11.6586 14.2617 11.6667 14.2146 11.6887C14.1674 11.7106 14.1274 11.7456 14.0994 11.7894C13.5985 12.3272 12.9415 12.694 12.2209 12.8383C11.9807 12.8539 11.7514 12.9447 11.5656 13.0979C11.3798 13.251 11.2469 13.4587 11.1857 13.6915C11.1344 13.8857 11.1347 14.0899 11.1867 14.2839C11.2387 14.478 11.3405 14.655 11.4821 14.7975C11.6304 14.9462 11.8168 15.051 12.0209 15.1004C12.2249 15.1498 12.4387 15.1419 12.6385 15.0775C12.8386 15.013 13.017 14.8947 13.1543 14.7355C13.2916 14.5763 13.3825 14.3825 13.417 14.1751" fill="#FFCC00"/>
</svg>
