<svg width="20" height="20" viewBox="0 0 20 20" fill="none" xmlns="http://www.w3.org/2000/svg">
<path d="M9.85726 0.974708C10.1156 0.724708 10.5589 0.818875 10.6823 1.15221C10.8148 1.51304 11.0298 1.84054 11.3114 2.11221L11.7673 2.55221C11.9986 2.77169 12.1828 3.03598 12.3087 3.32896C12.4346 3.62194 12.4995 3.93749 12.4995 4.25637C12.4995 4.57526 12.4346 4.89081 12.3087 5.18379C12.1828 5.47677 11.9986 5.74106 11.7673 5.96054C11.2903 6.41354 10.6576 6.6661 9.99976 6.6661C9.34194 6.6661 8.70924 6.41354 8.23226 5.96054C8.00093 5.74106 7.8167 5.47677 7.69081 5.18379C7.56492 4.89081 7.5 4.57526 7.5 4.25637C7.5 3.93749 7.56492 3.62194 7.69081 3.32896C7.8167 3.03598 8.00093 2.77169 8.23226 2.55221L9.85726 0.975542V0.974708Z" fill="#F78431"/>
<path d="M2.91699 10C2.91699 9.33696 3.18038 8.70107 3.64923 8.23223C4.11807 7.76339 4.75395 7.5 5.41699 7.5H14.5837C15.2467 7.5 15.8826 7.76339 16.3514 8.23223C16.8203 8.70107 17.0837 9.33696 17.0837 10V15C17.0837 15.8841 16.7325 16.7319 16.1073 17.357C15.4822 17.9821 14.6344 18.3333 13.7503 18.3333H6.25033C5.36627 18.3333 4.51842 17.9821 3.8933 17.357C3.26818 16.7319 2.91699 15.8841 2.91699 15V10ZM11.8612 12.4525C12.4545 12.0967 13.1012 12.0967 13.6953 12.4525C13.7986 12.517 13.9137 12.5604 14.0339 12.5799C14.154 12.5995 14.2769 12.5949 14.3953 12.5665C14.5137 12.538 14.6253 12.4863 14.7235 12.4143C14.8216 12.3422 14.9045 12.2513 14.9672 12.1469C15.0298 12.0425 15.0711 11.9267 15.0885 11.8062C15.1059 11.6856 15.0991 11.5628 15.0685 11.445C15.0379 11.3271 14.9841 11.2165 14.9103 11.1197C14.8365 11.0228 14.7442 10.9416 14.6387 10.8808C13.4637 10.1758 12.092 10.1758 10.9178 10.8808C10.3237 11.2367 9.67699 11.2367 9.08283 10.8808C7.90783 10.1758 6.53616 10.1758 5.36199 10.8808C5.25647 10.9416 5.16411 11.0228 5.09031 11.1197C5.01651 11.2165 4.96275 11.3271 4.93217 11.445C4.90159 11.5628 4.8948 11.6856 4.9122 11.8062C4.92959 11.9267 4.97083 12.0425 5.0335 12.1469C5.09616 12.2513 5.17901 12.3422 5.27719 12.4143C5.37537 12.4863 5.48691 12.538 5.60532 12.5665C5.72372 12.5949 5.8466 12.5995 5.96679 12.5799C6.08698 12.5604 6.20207 12.517 6.30533 12.4525C6.89949 12.0967 7.54616 12.0967 8.13949 12.4525C9.31449 13.1575 10.6862 13.1575 11.8612 12.4525Z" fill="#F78431"/>
</svg>
