<svg width="20" height="20" viewBox="0 0 20 20" fill="none" xmlns="http://www.w3.org/2000/svg">
<path d="M15.4262 4.57417C13.9762 3.12417 12.0502 2.32617 10.0002 2.32617C7.95017 2.32617 6.02417 3.12417 4.57417 4.57417C3.12417 6.02417 2.32617 7.95017 2.32617 10.0002C2.32617 12.0502 3.12417 13.9762 4.57417 15.4262C6.02417 16.8762 7.95017 17.6742 10.0002 17.6742C12.0502 17.6742 13.9762 16.8762 15.4262 15.4262C16.8762 13.9762 17.6742 12.0502 17.6742 10.0002C17.6742 7.95017 16.8762 6.02417 15.4262 4.57417ZM14.0942 9.30817L12.5582 10.8062L12.9202 12.9202C12.9662 13.1922 12.8582 13.4602 12.6342 13.6222C12.5082 13.7142 12.3602 13.7602 12.2122 13.7602C12.0982 13.7602 11.9842 13.7322 11.8782 13.6762L9.97817 12.6782L8.07817 13.6762C7.83417 13.8042 7.54417 13.7842 7.32217 13.6222C7.10017 13.4602 6.99017 13.1902 7.03617 12.9202L7.40017 10.8042L5.86417 9.30617C5.66617 9.11417 5.59617 8.83217 5.68217 8.57017C5.76817 8.30817 5.99017 8.12017 6.26217 8.08217L8.38417 7.77417L9.33417 5.85017C9.45617 5.60217 9.70217 5.45017 9.97817 5.45017C10.2542 5.45017 10.5002 5.60417 10.6222 5.85017L11.5722 7.77417L13.6942 8.08217C13.9662 8.12217 14.1902 8.30817 14.2742 8.57217C14.3622 8.83217 14.2922 9.11417 14.0942 9.30817Z" fill="#F78431"/>
</svg>
